Patient4_TMGait_0pt5_01_left_28_EMG.mot
version=1
nRows=16
nColumns=33
inDegrees=no
endheader
time	1LAddLong	2LGlutMax	3LGlutMed	4LIliopsoas	5LSemiMemb	6LBicFemLong	7LRecFem	8LVastMed	9LVastLat	10LGasMed	11LTibAnt	12lTibPost	13LPeroneusLong	14LSol	15LExtDigLong	16LFlexDigLong	17RAddLong	18RGlutMax	19RGlutMed	20RIliopsoas	21RSemiMemb	22RBicFemLong	23RRecFem	24RVastMed	25RVastLat	26RGasMed	27RTibAnt	28RTibPost	29RPeroneusLong	30RSol	31RExtDigLong	32RFlexDigLong
37.86	0.018921	0.11444	0.00946	0.020752	0.023041	0.40283	-0.048218	0.008698	0.1831	-0.028381	0.15259	-0.009155	0.3537	-0.001831	-0.041656	0.012512	0.029907	-0.18524	-0.33157	-0.15305	0.016022	-0.012207	0.16251	0.15137	0.085144	-0.074768	-0.016632	0.30197	0.099335	0.51727	-0.005493	-0.011292
37.861	0.022125	-0.021057	-0.041504	0.003815	0.005646	0.30853	-0.1004	0.01358	0.26688	-0.014648	0.11429	-0.011749	-0.31052	0.071869	-0.13046	0.003815	0.011597	-0.2002	-0.54214	0.003662	-0.1181	-0.000916	0.20493	0.13931	0.043182	-0.059967	-0.024261	0.78095	-0.16144	-0.23651	-0.003052	-0.012512
37.862	0.016632	-0.12054	-0.057831	0.00473	-0.046234	-0.16754	-0.14267	0.015106	0.31418	-0.081787	0.033722	-0.026855	-0.77362	0.073853	0.028839	-0.012512	-0.01236	-0.23651	-0.53482	0.099335	0.007172	-0.033112	0.16953	0.10193	0.025177	-0.036926	-0.039215	-0.16281	0.24918	-0.44403	-0.007629	-0.000153
37.863	0.007935	-0.12741	-0.081329	0.008698	-0.06134	-0.53925	-0.17136	0.009308	0.25375	0.027924	-0.095978	-0.016937	0.018768	-0.12253	0.084534	-0.008698	0.011902	-0.2858	0.57953	0.15366	0.1265	-0.036316	0.17899	0.055695	0.022736	-0.004272	-0.061798	0.11475	0.48675	-0.14938	-0.005188	0.000305
37.864	0.029602	-0.10956	-0.10056	0.021515	-0.13962	-0.86136	-0.27481	-0.008698	0.26108	0.28992	-0.2861	-0.01358	0.092316	-0.33142	0.25116	-0.010071	0.018768	-0.33173	0.008698	0.19989	0.090485	0.02533	0.21713	0.038452	0.010681	0.00061	-0.079346	0.2388	0.43182	0.32059	-0.00473	-0.004272
37.865	0.045929	-0.081329	-0.094757	0.007782	-0.10834	-0.52063	-0.19226	-0.043488	0.22308	0.46509	-0.15762	-0.022736	-0.009918	-0.26245	0.066986	-0.003967	0.027771	-0.35873	0.32318	0.11704	0.012817	0.053406	0.16556	0.055695	-0.010071	0.011444	-0.031128	0.092316	0.401	-0.11795	-0.002594	-0.001984
37.866	0.028229	-0.075684	-0.007782	-0.003204	0.035706	-0.11566	-0.15961	-0.049896	-0.075836	0.72815	-0.0177	-0.016327	-0.19119	-0.20477	-0.075836	-0.005341	0.023193	-0.38788	0.42602	-0.053711	0.00824	0.032043	0.092773	0.011749	-0.020599	0.012817	0.014954	0.029755	0.3508	-0.18219	-0.005798	0.004272
37.867	0.011139	-0.059052	0.00473	0.006714	0.075531	0.000153	-0.18875	-0.028534	-0.26977	0.29037	-0.000458	-0.011749	-0.27435	-0.18524	-0.069885	-0.012817	-0.00946	-0.46692	0.10727	-0.075073	-0.003815	0.074921	0.112	-0.00885	-0.015564	0.011292	-0.002747	-0.096436	0.43945	-0.40161	-0.010071	0.001068
37.868	0.004578	-0.031433	0.075836	0.010376	0.04425	0.12054	-0.24353	-0.005951	-0.21362	-0.083466	-0.036621	-0.007629	0.38208	-0.17151	-0.13031	0.000153	-0.042114	-0.48355	0.15747	-0.067749	0.040894	0.057373	0.13229	0.000153	-0.02182	0.002899	-0.044403	-0.13657	0.10529	-0.21561	-0.00351	0.001984
37.869	0.011444	-0.029602	0.054779	0.012817	0.055389	0.18646	-0.35049	0.014191	-0.19257	-0.09903	-0.019379	-0.002441	0.92941	-0.33295	-0.1915	0.002441	-0.032654	-0.51987	0.14099	-0.029297	0.065918	0.003967	0.097504	0.005493	-0.010834	0.019531	-0.024109	0.006104	-0.1004	-0.38223	-0.005493	0.001984
37.87	0.027313	-0.030823	0.075989	0.010681	0.073853	0.31906	-0.43121	0.028229	-0.074005	-0.24384	-0.029907	-0.001526	1.0289	-0.40741	-0.011902	0.013275	-0.009918	-0.49362	0.007172	-0.025787	0.032501	0.002441	0.025482	-0.02121	0.013733	0.028381	-0.001068	-0.092163	0.16022	-0.56351	-0.002899	-0.004425
37.871	0.033264	-0.038452	-0.037384	0.016937	0.023346	0.4538	-0.50934	0.02182	0.02243	-0.03067	0.035248	-0.005341	0.089111	-0.46234	-0.014038	-0.010986	-0.004425	-0.52856	-0.027313	-0.1059	-0.005188	0.013428	0.11658	-0.084686	0.011292	0.022278	0.028534	-0.26062	0.42725	-0.42847	0.001068	0.002899
37.872	0.019226	-0.065155	-0.076752	0.001373	-0.028534	0.49744	-0.53055	0.046692	0.12268	0.11917	0.074615	-0.011902	-0.16113	-0.65369	0.010223	-0.001831	-0.079193	-0.53024	0.019073	-0.086975	-0.019226	0.063324	0.1355	-0.097656	-0.002136	0.038147	-0.012512	0.17838	1.1253	-0.38254	-0.004272	-0.001984
37.873	0.014191	-0.083771	0.005493	-0.009613	-0.040436	0.54367	-0.56976	-0.011444	0.20081	-0.1796	0.010834	-0.009766	-0.14862	-0.46936	0.26077	-0.009308	-0.092621	-0.54108	0.11444	-0.070801	-0.051727	0.050049	0.11261	-0.12756	-0.0354	0.023346	0.046234	0.039673	-0.13947	-0.61676	-0.004883	-0.010223
37.874	0.010071	-0.015564	0.041656	-0.007782	-0.033417	0.80048	-0.54794	-0.006866	0.11414	-0.23651	-0.07782	-0.000763	-0.007324	-0.12054	0.18158	-0.005341	-0.053711	-0.466	-0.097504	0.015869	-0.071869	-0.021667	0.13077	-0.16464	-0.03891	0.019073	0.059814	-0.030212	-1.4319	-0.86548	-0.001526	-0.017242
37.875	0.005951	0.037537	-0.05661	0.041656	-0.028687	0.89294	-0.52734	-0.00061	0.10651	-0.13153	-0.090027	-0.000458	1.3164	-0.15976	-0.15381	-0.010834	-0.019073	-0.48248	-0.22614	0.24841	-0.096741	-0.021667	0.089111	-0.17746	-0.02594	0.024567	0.059967	-0.33035	-1.3255	-0.6427	-0.002747	-0.021362
